<?xml version="1.0" encoding="utf-8"?>
<!-- Generator: Adobe Illustrator 23.0.6, SVG Export Plug-In . SVG Version: 6.00 Build 0)  -->
<svg version="1.1" id="Layer_1" xmlns="http://www.w3.org/2000/svg" xmlns:xlink="http://www.w3.org/1999/xlink" x="0px" y="0px"
	 width="864px" height="864px" viewBox="0 0 864 864" enable-background="new 0 0 864 864" xml:space="preserve">
<g>
	<path d="M648.7435,81.0205c-98.3923,0-147.7065,43.8873-197.0205,131.6615c-49.3142-87.7742-98.6282-131.6615-197.2565-131.6615
		c-109.0102,0-197.2562,78.5723-197.2562,175.5486c0,175.5488,197.2562,351.0977,394.5126,526.4103
		C648.7435,607.6667,846,432.1179,846,256.5691C846,159.5928,757.7535,81.0205,648.7435,81.0205z M754.9219,268.3671
		l-26.1909,67.482l-10.6176-4.0109c-0.9437-10.382-5.6625-18.6404-13.4492-21.7076c-12.7417-4.9551-28.7863,6.1349-36.101,24.303
		c-7.0786,18.4042-2.3592,37.2803,10.382,42.2354c7.7866,3.0677,16.7526,0.2362,24.303-6.8424l10.6182,4.247h0.2357
		l-27.6063,71.0216c-1.6517,4.0114-6.6068,5.6631-11.3257,3.7752l-73.6169-28.55l1.6517-4.2471
		c10.1458-0.4718,18.4042-4.7189,21.2353-12.0337c4.7194-11.7975-6.8424-27.3707-25.7185-34.6849
		c-18.6404-7.3148-37.5165-3.5396-42.2357,8.2585c-2.8313,7.3142,0.4721,16.0445,7.5504,23.3593l-1.6514,4.2471l-63.9432-24.7754
		c-4.7192-1.8873-7.3145-6.6062-5.899-10.382l26.1908-67.4821l-5.4269-2.1235c-7.5504,6.8424-16.5166,9.9096-24.5392,6.8424
		c-12.7411-4.9551-17.2244-23.8311-10.1458-42.2354c7.0786-18.4043,23.3593-29.2581,36.1007-24.3035
		c7.7864,3.0677,12.5055,11.3262,13.4495,21.472l5.4269,2.1235l27.6064-71.0216c1.4155-4.0114,6.6068-5.6631,11.0897-3.7752
		l63.9432,24.7748c-1.6517-5.4269-1.6517-11.3257,0.4719-16.7525c5.4269-14.1572,22.6513-20.7639,38.2245-14.629
		c15.5727,6.1349,23.8312,22.4156,18.4042,36.5728c-2.124,5.4269-6.1349,9.674-10.8538,12.7411l66.7745,25.9547
		C753.9783,259.8725,756.5736,264.5919,754.9219,268.3671z"/>
	<path d="M230.5971,694.5337h-0.1934l-9.2803,1.1603c-2.7068,7.9266-8.1205,13.5338-14.8874,14.3073
		c-11.2136,1.5466-21.8476-10.4406-23.7809-26.2944c-1.9333-16.0477,5.4137-30.1616,16.4339-31.5147
		c6.9602-0.9669,13.534,3.0936,18.1741,10.2473l9.2806-1.1603l-7.347-58.9689c-0.3868-3.287-4.0603-5.6071-8.1205-5.0269
		l-58.389,7.1536c2.5135-3.8666,3.6735-8.7002,3.0936-13.3403c-1.5468-12.374-13.9207-20.8813-27.6478-19.3342
		c-13.534,1.7399-23.3942,13.1469-21.8476,25.5209c0.5802,4.6401,2.9002,8.8936,6.187,12.1805l-55.6822,6.9602
		c-4.0603,0.5802-6.9602,3.6733-6.5737,7.1536l7.7338,62.0626l-4.8335,0.5801c-4.447-6.9603-11.2139-11.2142-17.9808-10.2473
		c-11.2139,1.3531-18.5606,15.467-16.6273,31.5148c2.1267,15.8538,12.7604,27.8409,23.781,26.2944
		c6.9602-0.7735,12.3739-6.3801,15.0805-14.3073l4.6402-0.5801l7.347,58.7755c0.5801,3.4804,4.2537,5.8005,8.3137,5.2203
		l55.8758-6.9603l-0.3868-3.6732c-8.1206-2.5135-13.7274-7.5404-14.694-13.921c-1.16-10.2467,11.0205-20.3005,27.4545-22.4272
		c16.2408-2.1267,30.5481,4.6401,31.9012,15.0808c0.7735,6.3801-3.4801,12.5668-10.6337,17.0135l0.3868,3.6738l64.1892-8.1205
		c4.0603-0.3868,7.1536-3.6732,6.7669-6.9603L230.5971,694.5337z"/>
</g>
</svg>
